<?xml version="1.0" encoding="UTF-8"?>
<svg id="Layer_1" data-name="Layer 1" xmlns="http://www.w3.org/2000/svg" viewBox="0 0 57.75 57.75">
  <defs>
    <style>
      .cls-1 {
        fill: #282828;
      }
    </style>
  </defs>
  <path class="cls-1" d="M51.38,0H6.37c-1.69,0-3.31.68-4.5,1.87C.68,3.07,0,4.69,0,6.37v36c.02,1.35.46,2.66,1.27,3.73.81,1.08,1.94,1.87,3.23,2.27v3c0,1.69.68,3.31,1.87,4.5,1.19,1.19,2.81,1.87,4.5,1.87h36c1.69,0,3.31-.68,4.5-1.87,1.19-1.19,1.87-2.81,1.87-4.5v-3c1.29-.39,2.42-1.19,3.23-2.27.81-1.08,1.25-2.39,1.27-3.73V6.37c0-1.69-.68-3.31-1.87-4.5-1.19-1.19-2.81-1.87-4.5-1.87h0ZM49.5,51.38c0,.69-.28,1.36-.77,1.85-.49.49-1.16.77-1.85.77H10.87c-.69,0-1.36-.28-1.85-.77-.49-.49-.77-1.16-.77-1.85v-2.63h41.25v2.63ZM54,42.38c0,.69-.28,1.36-.77,1.85-.49.49-1.16.77-1.85.77H6.37c-.69,0-1.36-.28-1.85-.77-.49-.49-.77-1.16-.77-1.85V6.37c0-.69.28-1.36.77-1.85.49-.49,1.16-.77,1.85-.77h45c.69,0,1.36.28,1.85.77.49.49.77,1.16.77,1.85v36Z"/>
</svg>